<svg width="157" height="37" viewBox="0 0 157 37" fill="none" xmlns="http://www.w3.org/2000/svg">
<g clip-path="url(#clip0_8_26)">
<path fill-rule="evenodd" clip-rule="evenodd" d="M13.59 0.333605C12.2821 0.0845212 10.2912 -0.0911715 8.7981 0.0511618C12.4584 1.01636 15.9602 2.81109 18.6117 5.55768C23.8611 10.9975 23.7718 18.3365 16.8641 21.5858C16.2816 21.8593 16.1656 22.1529 16.6365 22.651C19.1741 25.6022 24.3611 26.6408 28.99 25.2241C32.2106 24.2367 36.0896 21.3344 36.7637 18.51C36.7637 18.4033 36.7614 18.2965 36.7547 18.1898C36.5896 15.3676 34.1568 12.6032 32.253 10.6706C29.9609 8.34653 23.7406 2.27067 13.59 0.333605Z" fill="white"/>
<path d="M22.3658 27.4748C9.97208 26.4785 13.1972 14.3557 13.1972 14.3557C15.6768 14.2534 19.375 15.8435 20.9507 16.5818C22.2385 13.148 21.0512 8.97813 17.7502 5.55768C15.1344 2.84667 11.6884 1.06528 8.08167 0.0911865C-0.100438 1.09197 -3.36898e-06 18.381 -3.36898e-06 18.381C-0.0133947 37.6627 8.56152 37.0089 9.72657 36.9956C22.3658 36.8488 36.7637 24.5614 36.7614 18.5056C36.7637 18.5033 33.3556 28.3577 22.3658 27.4748Z" fill="white"/>
<path d="M139.964 6.49619C140.453 6.49619 140.863 6.66521 141.2 6.9988C141.537 7.33462 141.707 7.74605 141.707 8.2331C141.707 8.72014 141.537 9.13158 141.2 9.46739C140.863 9.80321 140.451 9.97001 139.964 9.97001C139.475 9.97001 139.062 9.80321 138.725 9.46739C138.388 9.13158 138.219 8.72014 138.219 8.2331C138.219 7.74605 138.388 7.33462 138.725 6.9988C139.062 6.66298 139.475 6.49619 139.964 6.49619Z" fill="white"/>
<path d="M140.986 12.5743C140.716 12.3074 140.388 12.1717 140.004 12.1628C139.991 12.1628 139.977 12.1584 139.964 12.1584C139.901 12.1584 139.846 12.1673 139.785 12.174C139.756 12.1762 139.725 12.1762 139.698 12.1828C139.681 12.1851 139.663 12.1895 139.647 12.194C139.379 12.2496 139.145 12.3741 138.942 12.5765C138.663 12.8545 138.524 13.1925 138.524 13.5951V24.7971H141.404V13.5928C141.404 13.1925 141.263 12.8523 140.986 12.5743Z" fill="white"/>
<path d="M117.429 14.3756C117.192 13.8708 116.844 13.4305 116.38 13.0546C115.915 12.6765 115.348 12.3741 114.674 12.1472C114 11.9204 113.226 11.807 112.351 11.807C111.358 11.807 110.445 11.9715 109.61 12.2985C108.778 12.6254 108.052 13.088 107.439 13.6818C106.823 14.2778 106.343 14.9917 105.999 15.8212C105.653 16.6508 105.481 17.5715 105.481 18.5767C105.481 19.6331 105.658 20.5694 106.012 21.3833C106.367 22.1973 106.849 22.8845 107.465 23.4472C108.079 24.0098 108.796 24.4324 109.613 24.7193C110.429 25.004 111.309 25.1463 112.253 25.1463C112.927 25.1463 113.545 25.0951 114.11 24.9951C114.674 24.895 115.172 24.7771 115.601 24.6414C115.81 24.5747 116.002 24.508 116.179 24.4391C116.181 24.4368 116.185 24.4368 116.188 24.4368C116.324 24.3812 116.449 24.2967 116.563 24.1855C116.788 23.9609 116.902 23.6851 116.902 23.3604C116.902 23.2181 116.877 23.0869 116.833 22.9646C116.797 22.8623 116.746 22.7666 116.681 22.6755C116.645 22.6265 116.607 22.5776 116.563 22.5331C116.337 22.3085 116.06 22.1973 115.735 22.1973C115.572 22.1973 115.42 22.2262 115.284 22.2818C115.284 22.2818 115.284 22.2818 115.282 22.2818C115.197 22.313 115.114 22.3463 115.02 22.3775C114.726 22.4775 114.393 22.562 114.023 22.6288C113.652 22.6955 113.248 22.7288 112.811 22.7288C111.514 22.7288 110.516 22.4642 109.818 21.9349C109.119 21.4056 108.702 20.7139 108.568 19.8577C108.905 19.8733 109.22 19.8866 109.514 19.8955C109.809 19.9044 110.124 19.9066 110.461 19.9066C111.909 19.9066 113.105 19.811 114.047 19.6175C114.991 19.424 115.739 19.1572 116.295 18.8124C116.851 18.47 117.239 18.0563 117.458 17.5804C117.676 17.1022 117.786 16.5685 117.786 15.9813C117.781 15.4142 117.663 14.8783 117.429 14.3756ZM114.826 16.6663C114.726 16.9021 114.514 17.1111 114.195 17.2957C113.875 17.4803 113.429 17.6315 112.855 17.7494C112.282 17.8673 111.534 17.9251 110.608 17.9251C110.253 17.9251 109.9 17.9251 109.548 17.9251C109.193 17.9251 108.822 17.9162 108.436 17.9006C108.452 17.4136 108.55 16.9354 108.726 16.4662C108.903 15.9969 109.153 15.581 109.472 15.2208C109.791 14.8605 110.188 14.5714 110.659 14.3534C111.13 14.1355 111.677 14.0265 112.302 14.0265C113.061 14.0265 113.695 14.1866 114.208 14.5046C114.721 14.8227 114.978 15.3008 114.978 15.9391C114.978 16.186 114.927 16.4306 114.826 16.6663Z" fill="white"/>
<path d="M134.152 6.66741C133.875 6.39387 133.538 6.25598 133.139 6.25598C132.739 6.25598 132.4 6.39387 132.126 6.66741C131.851 6.94096 131.715 7.27455 131.713 7.67042C131.713 7.67264 131.713 7.67487 131.713 7.67931C131.713 7.68154 131.713 7.68376 131.713 7.68821V13.7485C131.291 13.2103 130.711 12.7544 129.97 12.3763C129.229 11.9982 128.369 11.8092 127.394 11.8092C126.468 11.8092 125.613 11.9738 124.83 12.3007C124.046 12.6276 123.363 13.0902 122.783 13.684C122.203 14.28 121.747 14.985 121.419 15.799C121.091 16.613 120.926 17.507 120.926 18.4789C120.926 19.4352 121.098 20.3247 121.444 21.1476C121.787 21.9705 122.265 22.6755 122.872 23.2626C123.479 23.8497 124.198 24.3123 125.033 24.6459C125.867 24.9817 126.78 25.1507 127.773 25.1507C128.751 25.1507 129.65 24.9995 130.476 24.697C131.302 24.3946 132.016 23.9409 132.623 23.3382C133.23 22.7333 133.706 21.9794 134.052 21.072C134.398 20.1646 134.57 19.0993 134.57 17.8739V7.67709C134.567 7.279 134.429 6.94096 134.152 6.66741ZM131.42 20.1379C131.226 20.6428 130.961 21.0698 130.624 21.4211C130.287 21.7725 129.878 22.0505 129.398 22.2507C128.918 22.4531 128.392 22.5531 127.82 22.5531C127.231 22.5531 126.7 22.4486 126.229 22.2396C125.758 22.0305 125.35 21.7458 125.004 21.3833C124.658 21.0231 124.392 20.5938 124.209 20.1001C124.024 19.6042 123.93 19.0638 123.93 18.4766C123.93 17.8895 124.022 17.3446 124.209 16.8398C124.394 16.3372 124.66 15.9057 125.004 15.5432C125.35 15.1829 125.758 14.8983 126.229 14.687C126.7 14.4757 127.231 14.3734 127.82 14.3734C128.392 14.3734 128.918 14.478 129.398 14.687C129.878 14.8961 130.287 15.1874 130.624 15.5543C130.961 15.9235 131.226 16.3594 131.42 16.8643C131.615 17.3691 131.71 17.9051 131.71 18.4744C131.71 19.0815 131.615 19.6353 131.42 20.1379Z" fill="white"/>
<path d="M86.3228 14.9161C86.0192 14.2533 85.5952 13.6907 85.0461 13.2303C84.4993 12.77 83.8454 12.4163 83.0888 12.1739C82.3299 11.9315 81.5064 11.8092 80.6136 11.8092C79.7209 11.8092 78.8995 11.9315 78.1496 12.1739C77.3997 12.4163 76.7524 12.77 76.2056 13.2303C75.6588 13.6929 75.2281 14.2556 74.9178 14.9161C74.6054 15.5788 74.4514 16.3305 74.4514 17.1689V23.3627C74.4514 23.7652 74.5897 24.1032 74.8687 24.3812C75.1477 24.6592 75.487 24.7971 75.8909 24.7971C76.2949 24.7971 76.6341 24.6592 76.9131 24.3812C77.1921 24.1032 77.3305 23.7652 77.3305 23.3627V17.8984C77.3305 16.7575 77.605 15.8879 78.1518 15.2919C78.6986 14.6959 79.52 14.3979 80.6158 14.3979C81.6938 14.3979 82.5107 14.6959 83.0665 15.2919C83.6222 15.8879 83.9012 16.7575 83.9012 17.8984V23.3604C83.9012 23.763 84.0396 24.101 84.3185 24.379C84.5975 24.657 84.9368 24.7949 85.3407 24.7949C85.7447 24.7949 86.084 24.657 86.363 24.379C86.6419 24.101 86.7803 23.763 86.7803 23.3604V17.1689C86.7781 16.3305 86.6263 15.5788 86.3228 14.9161Z" fill="white"/>
<path d="M101.466 18.441C100.692 17.8628 99.6048 17.4803 98.2076 17.2957L95.6298 16.9688C94.9401 16.8865 94.4089 16.7286 94.0384 16.504C93.6679 16.2771 93.4827 15.9458 93.4827 15.5099C93.4827 14.4868 94.4603 13.9753 96.4132 13.9753C97.1207 13.9753 97.7434 14.0309 98.2835 14.1377C98.8214 14.2467 99.2856 14.3734 99.6739 14.5158C99.7387 14.5402 99.7878 14.5625 99.8458 14.5869C99.8726 14.6003 99.8994 14.6114 99.9284 14.6203C100.051 14.6648 100.183 14.6892 100.326 14.6892C100.643 14.6892 100.91 14.5803 101.129 14.3623C101.348 14.1444 101.457 13.8775 101.457 13.5617C101.457 13.2459 101.348 12.979 101.129 12.7611C101.02 12.6521 100.899 12.572 100.768 12.5186C100.765 12.5186 100.765 12.5164 100.763 12.5164C100.669 12.4719 100.576 12.4275 100.471 12.3874C99.5021 12.0005 98.1429 11.8092 96.3908 11.8092C95.3463 11.8092 94.458 11.9137 93.726 12.1228C92.9939 12.3341 92.4002 12.6232 91.9449 12.9901C91.4896 13.3593 91.1571 13.7841 90.9473 14.2622C90.7375 14.7404 90.6326 15.2474 90.6326 15.7856C90.6326 16.4061 90.7464 16.9399 90.974 17.3847C91.2017 17.8295 91.5164 18.2031 91.9204 18.5055C92.3243 18.808 92.8087 19.046 93.3733 19.2239C93.938 19.3996 94.5562 19.5219 95.2303 19.5886L97.201 19.8154C98.1094 19.9155 98.741 20.089 99.0959 20.3314C99.4485 20.5738 99.6271 20.9319 99.6271 21.4011C99.6271 21.9549 99.3481 22.3441 98.7924 22.5709C98.2366 22.7978 97.5202 22.9112 96.6453 22.9112C95.9712 22.9112 95.3486 22.8623 94.775 22.76C94.2014 22.6577 93.6925 22.5376 93.2461 22.3952C92.9336 22.2952 92.6703 22.1995 92.427 22.1039C92.4136 22.0972 92.4002 22.0928 92.3868 22.0883C92.2596 22.0394 92.1212 22.0127 91.9717 22.0127C91.6548 22.0127 91.3869 22.1217 91.1705 22.3374C90.9517 22.5554 90.8424 22.82 90.8424 23.1358C90.8424 23.4516 90.9517 23.7163 91.1705 23.9342C91.2754 24.041 91.3936 24.1188 91.5231 24.1722C91.5298 24.1744 91.5365 24.1788 91.5454 24.1811C91.7932 24.2812 92.0699 24.3812 92.3868 24.4835C92.9336 24.6592 93.5787 24.8149 94.3196 24.9483C95.0606 25.0818 95.8864 25.1507 96.7948 25.1507C98.6808 25.1507 100.125 24.7726 101.127 24.0187C102.129 23.2626 102.631 22.2573 102.631 20.9986C102.629 19.871 102.241 19.0193 101.466 18.441Z" fill="white"/>
<path d="M54.4469 18.441C53.6725 17.8628 52.5855 17.4803 51.1884 17.2957L48.6105 16.9688C47.9209 16.8865 47.3897 16.7286 47.0192 16.504C46.6487 16.2771 46.4635 15.9458 46.4635 15.5099C46.4635 14.4868 47.441 13.9753 49.3939 13.9753C50.1014 13.9753 50.7241 14.0309 51.2643 14.1377C51.8021 14.2467 52.2664 14.3734 52.6547 14.5158C52.7194 14.5402 52.7686 14.5625 52.8266 14.5869C52.8534 14.6003 52.8801 14.6114 52.9092 14.6203C53.0319 14.6648 53.1636 14.6892 53.3064 14.6892C53.6234 14.6892 53.8912 14.5803 54.1099 14.3623C54.3286 14.1444 54.438 13.8775 54.438 13.5617C54.438 13.2459 54.3286 12.979 54.1099 12.7611C54.0006 12.6521 53.88 12.572 53.7484 12.5186C53.7461 12.5186 53.7461 12.5164 53.7439 12.5164C53.6501 12.4719 53.5564 12.4275 53.4515 12.3874C52.4829 12.0005 51.1236 11.8092 49.3716 11.8092C48.3271 11.8092 47.4388 11.9137 46.7067 12.1228C45.9747 12.3341 45.381 12.6232 44.9257 12.9901C44.4704 13.3593 44.1378 13.7841 43.928 14.2622C43.7182 14.7404 43.6133 15.2474 43.6133 15.7856C43.6133 16.4061 43.7272 16.9399 43.9548 17.3847C44.1825 17.8295 44.4972 18.2031 44.9011 18.5055C45.3051 18.808 45.7894 19.046 46.3541 19.2239C46.9188 19.3996 47.537 19.5219 48.211 19.5886L50.1818 19.8154C51.0902 19.9155 51.7218 20.089 52.0767 20.3314C52.4293 20.5738 52.6079 20.9319 52.6079 21.4011C52.6079 21.9549 52.3289 22.3441 51.7731 22.5709C51.2174 22.7978 50.501 22.9112 49.6261 22.9112C48.952 22.9112 48.3293 22.8623 47.7557 22.76C47.1821 22.6577 46.6733 22.5376 46.2269 22.3952C45.9144 22.2952 45.6511 22.1995 45.4078 22.1039C45.3944 22.0972 45.381 22.0928 45.3676 22.0883C45.2404 22.0394 45.102 22.0127 44.9525 22.0127C44.6355 22.0127 44.3677 22.1217 44.1512 22.3374C43.9325 22.5554 43.8231 22.82 43.8231 23.1358C43.8231 23.4516 43.9325 23.7163 44.1512 23.9342C44.2561 24.041 44.3744 24.1188 44.5039 24.1722C44.5106 24.1744 44.5173 24.1788 44.5262 24.1811C44.7739 24.2812 45.0507 24.3812 45.3676 24.4835C45.9144 24.6592 46.5594 24.8149 47.3004 24.9483C48.0414 25.0818 48.8672 25.1507 49.7756 25.1507C51.6615 25.1507 53.1056 24.7726 54.1077 24.0187C55.1098 23.2626 55.612 22.2573 55.612 20.9986C55.6097 19.871 55.2214 19.0193 54.4469 18.441Z" fill="white"/>
<path d="M70.559 14.3756C70.3224 13.8708 69.9742 13.4305 69.51 13.0546C69.0457 12.6765 68.4788 12.3741 67.8048 12.1472C67.1308 11.9204 66.3563 11.807 65.4814 11.807C64.4882 11.807 63.5754 11.9715 62.7406 12.2985C61.9081 12.6254 61.1828 13.088 60.569 13.6818C59.953 14.2778 59.4731 14.9917 59.1294 15.8212C58.7835 16.6508 58.6116 17.5715 58.6116 18.5767C58.6116 19.6331 58.788 20.5694 59.1428 21.3833C59.4977 22.1973 59.9798 22.8845 60.5958 23.4472C61.2096 24.0098 61.926 24.4324 62.7429 24.7193C63.5597 25.004 64.4391 25.1463 65.3832 25.1463C66.0572 25.1463 66.6755 25.0951 67.2401 24.9951C67.8048 24.895 68.3025 24.7771 68.731 24.6414C68.9408 24.5747 69.1328 24.508 69.3091 24.4391C69.3113 24.4368 69.3158 24.4368 69.318 24.4368C69.4542 24.3812 69.5792 24.2967 69.693 24.1855C69.9184 23.9609 70.0322 23.6851 70.0322 23.3604C70.0322 23.2181 70.0077 23.0869 69.963 22.9646C69.9273 22.8623 69.876 22.7666 69.8113 22.6755C69.7756 22.6265 69.7376 22.5776 69.693 22.5331C69.4676 22.3085 69.1908 22.1973 68.8649 22.1973C68.702 22.1973 68.5502 22.2262 68.4141 22.2818C68.4141 22.2818 68.4141 22.2818 68.4119 22.2818C68.3271 22.313 68.2445 22.3463 68.1507 22.3775C67.8561 22.4775 67.5236 22.562 67.1531 22.6288C66.7826 22.6955 66.3786 22.7288 65.9412 22.7288C64.6444 22.7288 63.6468 22.4642 62.9482 21.9349C62.2496 21.4056 61.8323 20.7139 61.6983 19.8577C62.0354 19.8733 62.3501 19.8866 62.6447 19.8955C62.9393 19.9044 63.254 19.9066 63.591 19.9066C65.0395 19.9066 66.2358 19.811 67.1776 19.6175C68.1217 19.424 68.8694 19.1572 69.4251 18.8124C69.9809 18.47 70.3692 18.0563 70.588 17.5804C70.8067 17.1022 70.916 16.5685 70.916 15.9813C70.9116 15.4142 70.7933 14.8783 70.559 14.3756ZM67.9566 16.6663C67.8561 16.9021 67.6441 17.1111 67.3249 17.2957C67.0058 17.4803 66.5594 17.6315 65.9858 17.7494C65.4122 17.8673 64.6645 17.9251 63.7383 17.9251C63.3834 17.9251 63.0308 17.9251 62.6781 17.9251C62.3233 17.9251 61.9528 17.9162 61.5667 17.9006C61.5823 17.4136 61.6805 16.9354 61.8568 16.4662C62.0331 15.9969 62.2831 15.581 62.6023 15.2208C62.9214 14.8605 63.3187 14.5714 63.7896 14.3534C64.2606 14.1355 64.8074 14.0265 65.4323 14.0265C66.1911 14.0265 66.825 14.1866 67.3383 14.5046C67.8517 14.8227 68.1083 15.3008 68.1083 15.9391C68.1083 16.186 68.057 16.4306 67.9566 16.6663Z" fill="white"/>
<path d="M157 17.1689C157 16.1949 156.837 15.3653 156.507 14.6781C156.179 13.9909 155.719 13.4371 155.13 13.0168C154.54 12.5965 153.837 12.2918 153.021 12.0983C152.204 11.9048 151.298 11.8092 150.304 11.8092C149.479 11.8092 148.798 11.8604 148.258 11.9604C147.718 12.0605 147.289 12.2006 146.97 12.3763C146.91 12.4097 146.858 12.443 146.805 12.4786C146.787 12.4897 146.769 12.4986 146.751 12.512C146.695 12.5498 146.642 12.592 146.593 12.6432C146.374 12.8611 146.262 13.1302 146.262 13.446C146.262 13.7641 146.372 14.0309 146.593 14.2489C146.811 14.4668 147.081 14.5758 147.398 14.5758C147.552 14.5758 147.695 14.5491 147.825 14.498C147.834 14.4957 147.84 14.4913 147.849 14.4891C147.883 14.4757 147.907 14.4646 147.943 14.4535C148.523 14.2355 149.296 14.1266 150.255 14.1266C150.829 14.1266 151.351 14.1688 151.822 14.2533C152.293 14.3378 152.697 14.4891 153.034 14.707C153.371 14.925 153.637 15.2274 153.831 15.6144C154.025 16.0014 154.121 16.4862 154.121 17.0733C153.835 17.04 153.404 17.0022 152.833 16.9599C152.259 16.9176 151.655 16.8976 151.014 16.8976C149.903 16.8976 148.959 16.9866 148.184 17.1623C147.41 17.338 146.782 17.6026 146.303 17.954C145.823 18.3076 145.477 18.7435 145.267 19.2639C145.055 19.7843 144.95 20.3892 144.95 21.0764C144.95 21.5968 145.039 22.1039 145.216 22.5999C145.392 23.0958 145.72 23.5317 146.2 23.9098C146.68 24.2878 147.336 24.5903 148.171 24.8171C149.005 25.044 150.079 25.1574 151.391 25.1574C152.047 25.1574 152.679 25.1396 153.286 25.1063C153.893 25.0729 154.44 25.0351 154.929 24.9928C155.141 24.975 155.337 24.9573 155.525 24.9372C155.938 24.9039 156.286 24.7949 156.571 24.508C156.857 24.2233 157 23.872 157 23.4583C157 23.4516 156.998 23.445 156.998 23.4383H157V17.1689ZM154.145 22.8334C153.994 22.8667 153.69 22.9134 153.235 22.9713C152.78 23.0291 152.166 23.0602 151.391 23.0602C150.699 23.0602 150.124 23.0135 149.662 22.9223C149.197 22.8311 148.831 22.6955 148.563 22.5198C148.293 22.3441 148.104 22.1284 147.994 21.8771C147.885 21.6258 147.829 21.3478 147.829 21.0453C147.829 20.307 148.09 19.7665 148.613 19.4218C149.135 19.0771 149.967 18.9059 151.115 18.9059C152.041 18.9059 152.735 18.9392 153.199 19.0059C153.661 19.0727 153.978 19.1238 154.145 19.1572V22.8334Z" fill="white"/>
</g>
<defs>
<clipPath id="clip0_8_26">
<rect width="157" height="37" fill="white"/>
</clipPath>
</defs>
</svg>
